<svg id="Layer_1" data-name="Layer 1" xmlns="http://www.w3.org/2000/svg" xmlns:xlink="http://www.w3.org/1999/xlink" viewBox="0 0 1000 1500"><defs><style>.cls-1{fill:none;}.cls-2{opacity:0.08;}.cls-3{clip-path:url(#clip-path);}.cls-4{fill:#f5eadc;}</style><clipPath id="clip-path"><polygon class="cls-1" points="209.3 202 790.7 162 790.7 1367.31 209.3 1347.31 209.3 202"/></clipPath></defs><title>Artboard 1</title><g class="cls-2"><g class="cls-3"><path class="cls-4" d="M289.58,204.25c8.62-2.41,17.09,10.51,25.34,24.86-10.4,2.36-23.91,6-33.89,9.22.5-16.27.87-31.92,8.55-34.08m25.69,33.08-2.87.72c-.84-2.13-1.69-4.35-2.49-6.51l2.63-.64c.87,2.13,1.8,4.33,2.73,6.43m.22-7.13c1.2,2.07,2.39,4.16,3.59,6.21l-3.11.73c-.94-2.12-1.89-4.31-2.76-6.43l2.31-.54m1.76,16.75c-2.94-2.78-5.77-5.32-7.77-6.95,3.57-.95,6.93-1.77,9.82-2.44-.7,2.68-1.41,6.06-2,9.32m7.52-.1c-1.94.42-4.11.93-6.44,1.55.62-3.37,1.35-6.85,2.08-9.59,1.55,2.85,3.11,5.58,4.36,8.08m4.66,9.32c-22.37,5.1-34.69,7.7-48.64,10.73-.09-1.56-.14-3.9-.14-6.64,14.26-4.54,33.82-10,44.68-12.43,1.74,3.39,3.11,6.29,4.1,8.39m35.66-6.07a27.25,27.25,0,0,1-.17,3.71c-13.11,3-25.95,7.12-46,11.54-18.64,4.14-42.21,8.67-66.58,14.24a41.73,41.73,0,0,1-2.75-3.87c25.17-6.31,46.52-10.24,65.15-14.34,20.49-4.52,36.45-9.33,50.4-11.28m-2,12c-1.37-1.34-3.36-3.11-5.5-5.05,2.3-.56,4.66-1.1,6.88-1.56a44.1,44.1,0,0,1-1.38,6.65m-10.12,3a1.65,1.65,0,0,1,2.14.92h0a1.7,1.7,0,0,1-.9,2.19,1.55,1.55,0,0,1-2.06-.76,1.34,1.34,0,0,1-.07-.18,1.66,1.66,0,0,1,.88-2.18m-7.13-5c3.11-.81,6-1.55,8.86-2.31-1,2.28-1.9,4.3-2.5,5.6-1.56-.9-3.93-2.06-6.36-3.29m-5.14,10.38a1.43,1.43,0,0,1,1.86.79v0a1.56,1.56,0,0,1-.79,1.91,1.46,1.46,0,0,1-1.07-2.72m-9.06-6.71c4.35-1.08,8.33-2.12,12.07-3.11-1.18,3.36-2.37,6.63-3.27,8.58-2.51-1.39-5.8-3.44-8.8-5.47m-4.32,10.7a1.4,1.4,0,0,1,1.81.8v0a1.4,1.4,0,0,1-2.59,1.05,1.44,1.44,0,0,1,.77-1.88m-8.59-7.67c4.35-1,8.36-1.9,12.1-2.83-1.47,3.42-2.92,6.66-3.74,8.44a77.18,77.18,0,0,1-8.36-5.61m-4.15,10.51a1.74,1.74,0,0,1,2.25,1v0a1.75,1.75,0,0,1-.94,2.29,1.72,1.72,0,0,1-2.23-.95v0a1.73,1.73,0,0,1,.92-2.28h0m-9.86-7.55c4.35-.88,8.54-1.75,12.58-2.64-1.37,3.59-2.63,7.1-3.45,8.87a78.46,78.46,0,0,1-9.13-6.21m-2.51,10.55a2,2,0,0,1-.35,2.64,1.55,1.55,0,0,1-2.2,0,1,1,0,0,1-.18-.22,2.09,2.09,0,0,1,.36-2.67,1.55,1.55,0,0,1,2.19.05,1.3,1.3,0,0,1,.18.23m-9.89-8L303.87,270c-1.32,3.32-2.53,6.49-3.31,8.15a62.43,62.43,0,0,1-8.2-5.78m-3.92,10.46a1.64,1.64,0,0,1,.79,2,1.3,1.3,0,0,1-1.54,1l-.2-.06a1.65,1.65,0,0,1-.79-2,1.33,1.33,0,0,1,1.58-1l.16.05M279,275.26l12.43-2.63a68.86,68.86,0,0,1-3.67,8.51,80.45,80.45,0,0,1-8.78-5.88M274.54,286a1.54,1.54,0,0,1,.65,2.09l0,0a1.67,1.67,0,0,1-2.22.66,1.55,1.55,0,0,1-.63-2.1v0a1.63,1.63,0,0,1,2.21-.66m-10.27-7.49c4.77-1.12,9.32-2.15,14-3.11-1.76,3.37-3.53,6.87-4.82,9.07a102.09,102.09,0,0,1-9.09-5.95m98.51-15.33c-2.53,7.77-7.77,15.61-18.37,21.41-8.36,4.66-33.37,12.6-56.6,13.87a36.56,36.56,0,0,1-26.11-8.93c.76-2.74,1.55-6.22,2.45-9.32,2.67,1.69,5.53,3.4,7.77,4.78a3.1,3.1,0,0,0-1,3.84,3.39,3.39,0,0,0,4.33,1.71,3.1,3.1,0,0,0,1.73-4l-.07-.16a3.34,3.34,0,0,0-1.84-1.72c1.19-2.27,2.61-5.22,4-8,2.3,1.77,4.87,3.57,7.14,5a3.12,3.12,0,0,0-.8,3.94,3.66,3.66,0,0,0,4.38,1.95,2.94,2.94,0,0,0,1.46-3.89c0-.1-.11-.2-.17-.3a3.85,3.85,0,0,0-2.25-1.94c1-2.07,2.07-4.85,3.11-7.63,2.52,1.91,5.06,3.74,7.08,5.05a3.11,3.11,0,0,0-1.44,4,4,4,0,0,0,4.66,2.34,3.11,3.11,0,0,0,2.13-3.85c0-.12-.09-.25-.14-.37a4.08,4.08,0,0,0-2.67-2.34c.77-1.88,1.8-4.53,2.89-7.27,2.73,2,5.76,3.95,8.18,5.41a3.47,3.47,0,0,0-.62,3.57,3.32,3.32,0,0,0,4.3,1.91h0a3.42,3.42,0,0,0-1.11-6.56c.83-2.06,1.84-4.88,2.89-7.64,2.77,1.89,5.69,3.79,8,5.13a3.25,3.25,0,1,0,2.14-.5c.9-2,2.15-4.82,3.41-7.77,2.42,1.69,5.11,3.4,7.44,4.77a3.2,3.2,0,0,0-.72,3.45,3.07,3.07,0,1,0,5.7-2.29v0a3.1,3.1,0,0,0-2.3-1.92c.89-2.19,1.93-5.11,2.92-8,2.5,1.32,5,2.57,7,3.61a3.14,3.14,0,1,0,2-.61c.77-1.55,1.88-3.76,3-6.09,2.27,2,4.46,4,6,5.47m-109.31,18q4.82-1.2,9.47-2.31c-.85,3.22-1.74,6.76-2.5,9.57a75.87,75.87,0,0,1-7-7.26M280.64,259c0-2.42,0-5.14.1-8,1.46,1.88,3.1,4.18,4.81,6.51l-4.91,1.55m7.48-12.77c-.64,2.33-1.56,5.78-2.35,9.32-1.55-2.37-3.31-4.8-4.85-6.93,2.24-.79,4.66-1.55,7.2-2.41m1.33-1.55-2.34.75c-.63-2.36-1.25-4.76-1.78-7l2.06-.63c.62,2.19,1.33,4.54,2.06,6.87m3.11-1-2.44.76c-.75-2.34-1.46-4.66-2.1-6.85l2.35-.7c.67,2.18,1.41,4.49,2.19,6.79m3.11-1-2.5.76c-.8-2.31-1.56-4.66-2.21-6.79l2.36-.68c.73,2.17,1.55,4.47,2.35,6.71m3.1-.93-2.44.71c-.82-2.25-1.55-4.54-2.36-6.68.83-.25,1.67-.48,2.5-.7.72,2.15,1.56,4.41,2.3,6.67m3.25-.94-2.47.72c-.82-2.27-1.55-4.54-2.33-6.67.85-.23,1.69-.48,2.55-.7.7,2.15,1.55,4.43,2.25,6.65m3.22-.88-2.57.7c-.8-2.24-1.55-4.51-2.28-6.64l2.58-.68c.71,2.16,1.55,4.43,2.27,6.62m3.1-.86-2.48.67c-.79-2.2-1.55-4.46-2.3-6.6l2.31-.62c.83,2.27,1.67,4.47,2.47,6.55m.83-.21c-.84-2.1-1.68-4.31-2.5-6.53l2.51-.64c.78,2.16,1.56,4.4,2.46,6.51l-2.47.66m-3.51,11.82c-2.66-3-5.29-5.78-7.13-7.67,3.27-.95,6.54-1.87,9.64-2.71-.79,2.8-1.72,6.65-2.51,10.38m-16.77-4.66c2.94-1,6-1.88,9.09-2.77-.65,2.54-1.44,6.56-2.17,10.6-2.47-2.95-5-5.84-6.92-7.77m.5,10.35-2.63.79c.7-3.87,1.46-7.57,2.07-9.79,1.71,1.73,4.07,4.4,6.49,7.24l-2.81.83c-.91-1-1.77-2-2.47-2.66a29,29,0,0,0-.65,3.59m9.21-2.69-1.88.53c.69-3.75,1.42-7.29,2-9.43,1.68,1.68,4,4.29,6.35,7.08l-3.11.86c-.93-1.06-1.81-2-2.53-2.72-.26.95-.56,2.22-.85,3.68m10.87-3-2.81.76c.82-3.73,1.73-7.41,2.49-9.91a82.91,82.91,0,0,1,7.77,7.22l-3.27.83c-1.24-1.29-2.33-2.41-3.1-3.22-.36,1.17-.77,2.67-1.14,4.32m-25.62-4.21c-.5-2.41-1-4.86-1.35-7.16l2-.62c.53,2.27,1.14,4.66,1.76,7l-2.41.79m-3.26,1.12c0-2.52.12-5.13.2-7.77l1.09-.34c.39,2.33.84,4.78,1.32,7.18l-2.61.9m5.4-43.68c-5.53,4.28-6,13.61-6.47,19.94-.73,9.43-.81,18.95-.86,28.4v8a59.35,59.35,0,0,1-.09,6.8c-9.32,2-19.24,4.24-29.79,6.88l-2.58.66a46.63,46.63,0,0,1,2.93,4.44,66,66,0,0,0,4.61,5.28c8.83,10,20.59,16.8,34.18,16,22.73-1.26,48.4-9.15,57.49-14.13a46.71,46.71,0,0,0,6.21-4,40.76,40.76,0,0,0,12.23-16.24,35.28,35.28,0,0,0,2.67-9.16c.14-.81.7-9,.59-9l-2.19.3-1.13.17c-10.88,1.8-21.55,4.8-32.27,7.3-1.71-3.67-7.12-14.15-11.08-21.19-1.66-3-3.39-6-5.13-8.93A110.46,110.46,0,0,0,305,210.42c-3.81-4.66-9.32-9.82-15.88-8a8.56,8.56,0,0,0-2.84,1.44"/><path class="cls-4" d="M736.32,734.4c.72.5,1.56.54,1.87.11s0-1.21-.73-1.73-1.56-.54-1.87-.11,0,1.22.73,1.73"/><path class="cls-4" d="M734.23,744.86c1,.73,2.23.79,2.68.15s0-1.75-1-2.48-2.25-.8-2.7-.16,0,1.76,1.06,2.49"/><path class="cls-4" d="M722.5,738.16c.68.48,1.47.54,1.78.11s0-1.17-.71-1.65-1.56-.53-1.77-.11a1.42,1.42,0,0,0,.7,1.65"/><path class="cls-4" d="M724.45,728.18c1,.72,2.19.78,2.64.14s0-1.72-1-2.42-2.19-.81-2.64-.15,0,1.72,1,2.43"/><path class="cls-4" d="M714.57,719.27c-.71-.5-1.55-.55-1.86-.1s0,1.2.73,1.7,1.55.56,1.86.12,0-1.23-.73-1.72"/><path class="cls-4" d="M739.09,727.42c.53.38,1.13.42,1.37.1s0-.9-.55-1.28-1.13-.4-1.36-.08,0,.91.54,1.26"/><path class="cls-4" d="M756.71,744.11a1.24,1.24,0,0,0-.25-1.55,1,1,0,0,0-1.42-.18l-.06,0a1.24,1.24,0,0,0,.25,1.56,1,1,0,0,0,1.42.17l.06,0"/><path class="cls-4" d="M755.92,755c1.05.07,1.88-.42,1.75-1.26s-1-1.24-2.11-1.34-1.8.36-1.68,1.17a2,2,0,0,0,2,1.43"/><path class="cls-4" d="M749,745.28c.6-.64.28-1.93-.73-2.91s-2.32-1.24-2.93-.62-.26,1.92.73,2.89,2.33,1.26,2.93.64"/><path class="cls-4" d="M747.36,733.3a.9.9,0,0,0-.18-1.14.73.73,0,0,0-1-.15.1.1,0,0,1,0,0,.88.88,0,0,0,.17,1.15.76.76,0,0,0,1.05.12l0,0"/><path class="cls-4" d="M787.69,771.59a6.22,6.22,0,0,1-5.75,3.24c-1-.1-2-.47-3-.58a2.82,2.82,0,0,0-2.74,1c-.56.87-.29,2-.37,3s-1,2.2-1.91,1.81l-3.25-5.84a9.56,9.56,0,0,0,4.2-9.82,14.73,14.73,0,0,0,8.48-4.66,11.3,11.3,0,0,1,4.55,5.14,8,8,0,0,1-.2,6.75m-8.47,16.89-4.66,3.23a192.41,192.41,0,0,1-10.39-19.94,7.67,7.67,0,0,0,2.75,2.24,4.1,4.1,0,0,0,2,.34,59.52,59.52,0,0,0,10.27,14.13m-12.76-7.07c-.45.38-1.43.51-1.71,0a70.36,70.36,0,0,0-1-7.09c.2,0,.59-.22.79-.22.88,2.21,1.69,4,2.44,5.86a1.29,1.29,0,0,1-.5,1.45M760,788.59c-.61-4.83-1.23-9.66-1.83-14.49a3.84,3.84,0,0,0,3.46-.21,3.2,3.2,0,0,0,1-.93c.48,4.79,1,9.54,1.77,14.28a10.85,10.85,0,0,1-4.41,1.35m-5.92-3.79a2.75,2.75,0,0,1-2.41-2.41c-1.18-.29-2.3.76-2.86,1.85a9.78,9.78,0,0,1-1.83,3.11,3,3,0,0,1-3.11.53,3.11,3.11,0,0,1-1.86-2.46c-.09-.95.11-2.22-.78-2.59s-1.38.26-2.06.56a3.34,3.34,0,0,1-4.37-2.38,3.81,3.81,0,0,0,2.87-2.13,3.86,3.86,0,0,0-.18-3.57,9.06,9.06,0,0,0,8.57,1.47c1.4-.49,2.91-1.36,4.28-.76a13.39,13.39,0,0,1,1.55,1.17,4.77,4.77,0,0,0,5.47-1.42,59.09,59.09,0,0,1,.79,6.06,3.85,3.85,0,0,1-4.1,2.91m-20.6-4.32a3.66,3.66,0,0,1-4.23-1.55,7.46,7.46,0,0,0-.88-1.56,2.48,2.48,0,0,0-2.15-.6,8.15,8.15,0,0,0-2.2.74,8.64,8.64,0,0,1-5.5.75c-4.66-1.32-2.38-8.24-2-11.73-.11,1.07,3.45,2.48,4.15,3a10.53,10.53,0,0,1,1.55,1.72,4.68,4.68,0,0,0,2.88,2,12.32,12.32,0,0,0,4.1-.33,7.81,7.81,0,0,1,4.07.08,4.23,4.23,0,0,1,2.75,3.68,3.94,3.94,0,0,1-2.53,3.78m-22.58-28.17a7,7,0,0,0,2.49-.75,15.57,15.57,0,0,0,3.9,3.78,6.23,6.23,0,0,0,8.53-2,52.82,52.82,0,0,0,5.08,2.78c-1.4,3.28-6.59,6.87-11.48,5.53-3-.79-6.9-3.25-8.52-9.32m2.27,25-4.72-1.85,1.24-19.87a18.35,18.35,0,0,0,4.51,5.22ZM693.6,762.37l-.81-4.76,9.32-4.38c2.64.22,3-1.55,4.66-1.82.78-.09,1.34.7,1.56,3.81Zm13.89,4.27c-4.77.62-2.83-3.26-4.66-4.06a2.53,2.53,0,0,1-1.46-2.45l6.35-2.84Zm-26.23-14.19.41-5.45,16.57.51a6.18,6.18,0,0,0,.58,3.11Zm5.87-16.06c-.6-1.24-2.36-1.11-3.1-4.27a5.28,5.28,0,0,1,.37-3.39l6.42-.33a4.6,4.6,0,0,0,.23,2c.79,2.67,4.66,1.67,5.34,3.8s-4.5.2-4.08,3.56a4.65,4.65,0,0,0,2.67,3.73c-4.8,1.55-6.59.93-7.64-.2-2.33-2.49.52-3.34-.22-4.88m-14.5-8.55L673,723l16.1,1.1a4.63,4.63,0,0,1,1.82,1.72,2,2,0,0,1,.21,1.12Zm15.09-5.06c-1.74-.16-3.5-.27-5.25-.36a3.52,3.52,0,0,1-.45-3.85c1.92,1.32,3.83,2.56,5.59,3.73a1.67,1.67,0,0,0,.11.48m-14.14-12.94,3.54-4.2a55.91,55.91,0,0,0,12,13.78c-.32.53-.71,1-1,1.46-5-3.11-10.61-6.65-14.56-11m14.61,1.25c-.46-1.64-2.72-2-2.52-3.72a3.64,3.64,0,0,1,4.4-2.7l.26.07a8.28,8.28,0,0,1,4.86,4.24,10.12,10.12,0,0,0-.12,5.21c-2.41-1-4-.53-4.77.69s-.28,2.35-.7,3.52a24.53,24.53,0,0,1-4.86-4.74c.65-1.93,3.91-.73,3.4-2.57m20.2,26.82c-.53,3.31-2.68,7.27-4.66,7.24-3.8-.08-.67-5-4.14-4.49-2.7.39-5.23-.39-5.47-2.08-.56-4,5.8-.9,4.66-3.79-1.55-3.76-6.49-2.75-6.77-4.66s2.25-1.84,1.43-3.62-4.33-3.69-3.46-6a7.32,7.32,0,0,0,1.11-3.42c-.12-2.6,2.24-2.38,4.42-1.18,1.71,6.21,6.46,14.32,12.92,21.9M700.59,745a3.47,3.47,0,0,0,3.11,1.12c2.9-.2,5.47-3.51,6.21-6.54,1.35,1.55,2.77,3,4.21,4.41.44,2.56,0,5.44-1.77,6.7s-3.7-2.69-6.31-.76c-.88.66-3.1,3-4.89,1a5.12,5.12,0,0,1-.51-6m-2.23,1.37-9.58-.5a4.93,4.93,0,0,1-.92-2.44c2,.36,5.17-.19,9.32-1.21,1.25.29,1.74.23,2.5,1.43a7.58,7.58,0,0,0-1.25,2.72m2.23,6.43-3.45,1.55a5.87,5.87,0,0,1-1.38-2.44l3.5-.43a3.94,3.94,0,0,0,1.33,1.27m15.17-7.22a72.58,72.58,0,0,0,9.12,7.16,5.17,5.17,0,0,1-7.25.86l0,0a7.21,7.21,0,0,1-2.75-3.37,8,8,0,0,0,.92-4.66m40.39,23.1a3.09,3.09,0,0,0-2.28-1.77c-1.48,0-.9.9-1.55,1.56-1.39,1.27-3-.28-3.72-1.56a12,12,0,0,1-1.09-4.49,58.87,58.87,0,0,0,23,2.1c1-.11,2.27-.14,2.81.72a2.58,2.58,0,0,1,.2,1.91c-.31,2.16-1,4.58-2.89,5.57a4,4,0,0,1-4.8-.71c-.62-.68-1.68-2.94-2.89-2.52-.56.19-.59,1-.76,1.43-.43,1.06-.68,2.27-2,2.44a2.85,2.85,0,0,1-2.59-1.55c-.55-.93-.81-2-1.33-3m-12.83,1.55a3.11,3.11,0,0,0,4.37-.49,3,3,0,0,0,.29-.44,3.7,3.7,0,0,0,5.23.09,3.87,3.87,0,0,0,.71-1,6.11,6.11,0,0,1,2.51,3.11,3.88,3.88,0,0,1-.83,3.81,2.86,2.86,0,0,1-3.73.26c-.55-.47-.92-1.2-1.56-1.41s-1.55.28-2.33.68a9.07,9.07,0,0,1-9-.12,7.28,7.28,0,0,0,4.35-4.57m-17.28-8.17a13.64,13.64,0,0,0,6.29-5.26,81.68,81.68,0,0,0,9.15,3.5c.81.26,1.56.51,2.44.75s1.7.28,2.1.82.23,1.12.37,1.65.56,1.33.72,2.05V766a3.67,3.67,0,0,1-.36,2.16,2.27,2.27,0,0,1-2.14,1.21,3.1,3.1,0,0,1-1.95-1.26,10.87,10.87,0,0,0-1.55-1.77c-1-.73-1.77-.43-2.78,0a2.27,2.27,0,0,1-2.47-.42c-.92-.7-.19-3.1-2.69-3-1.29,0-3.28,2.47-4.66,2.23s-2.22-1.82-2.56-3.1m1.24,4.31c2.41.55,3.85-1.94,5.31-2a2,2,0,0,1,2.07,1.27c.15.31.29.67.47,1a1.55,1.55,0,0,0,1.69,1.08c.92-.13,1.55-1,2.53-1a2.19,2.19,0,0,1,2,1.89,3.88,3.88,0,0,1-1.17,3.57,3.81,3.81,0,0,1-3.66.78c-1-.31-1.88-1.07-2.91-1.3a8.92,8.92,0,0,0-2.73,0,11.68,11.68,0,0,1-4.66-.56,27.49,27.49,0,0,1-4.09-2.33c-2.75-1.48-6.11-3.11-6.12-6.73a11.88,11.88,0,0,0,8.36.57,4.39,4.39,0,0,0,2.89,3.73m-28.84-57.48c2.89-3.11,27.3-.16,49.6,15.42,21.37,15,38.31,30.16,32.19,36s-36.44,2.67-52.67-8c-18.34-12.1-34.91-37.29-29.12-43.39m91.33,55.11a13.32,13.32,0,0,0-5.41-6.22l-.75-.47v-.63c-.54-7.13-12.1-18.65-34.35-34.18-20.6-14.41-43.16-18.32-50-16.47a5.2,5.2,0,0,0-2.42,1.32v.11a10.1,10.1,0,0,0-6.06-4.91c-2.13-.49-5.17,0-6.21,2.13a4,4,0,0,0,.76,4.52c.45.42,1.07.93.9,1.55s-.78.67-1.27.79a2.38,2.38,0,0,0-1.25.93,25.31,25.31,0,0,1-3.82-5.56c-.82-1.3-1.65-2.62-2.45-4l-6,7.49s6.49,5.27,9.32,7.29c-1.24.87-.53,3.4-.25,4.55l-8.34-1.4-1,8.61,11.43-.87a15.94,15.94,0,0,0-.79,3.93,7,7,0,0,0,2.94,4.49,4.43,4.43,0,0,0,.82,5.53v.9c0,.47,1.48,1.69,1.56,2.16l-6.54-.34-1,8.89,14.48-1.88c.14.35,1,2.16,1.15,2.5l-4.86,2.55,1.41,6.88,7.77-3.61s-.51,3.11,1.9,3.7a2.73,2.73,0,0,1,.1.41,5.88,5.88,0,0,0,5.91,3.66l-1,10,7.07.91.78-2.45a7.08,7.08,0,0,0,6.93,3c1-.27,2-.8,3-1.11a3.72,3.72,0,0,1,3.11.21c1.15.74,1.55,2.45,3,2.78.72.17,1.56-.13,2.21,0,1.55.37,2.1,2.75,3.71,3.1,1.18.25,2.52-.76,3.54-.12.67.42.81,1.31,1.12,2a4.21,4.21,0,0,0,4,2.4,5.19,5.19,0,0,0,4.07-2.51,3.1,3.1,0,0,1,1.19-1.4c1.26-.53,2.69,1.13,3.86,1.44s2.95-1.33,4.07-2c0,.45.59,5.53.67,5.53s6.21-1.11,7.1-1.37c-.31-2.16-.49-4.24-.64-5.25a8.32,8.32,0,0,0,1.12.09c.12,0,.93-.93,1.23-1.1,1.69,3.21,6,11.11,6,11.11l7.3-5.11s-4.86-5.3-6.21-7.18c1-.76,3.1-1.88,3.1-3.11v-1.13a3.54,3.54,0,0,1,0-.92h.67a9.52,9.52,0,0,1,1.18.25,16.71,16.71,0,0,0,1.85.34,8.47,8.47,0,0,0,7.77-4.35,10.14,10.14,0,0,0,.31-8.61"/><path class="cls-4" d="M254.77,1048.94l-3.1-1.07c.57-1.56,1.13-3.25,1.66-4.83,2.2,1.63,2.1,3.1,1.44,5.9m-5.64,5.83c.73-1.87,1.43-3.78,2.12-5.69,1.08.39,2.16.76,3.2,1.1-1.14,4-2.89,4.88-5.32,4.66m-6.55-2c.88-2,1.74-4,2.56-6,1.73.67,3.42,1.32,5.1,1.92-.73,2-1.46,4-2.21,5.86-1.55-.37-3.39-1.09-5.45-1.8m-1.31-.44c-1.13-.35-2.47-.77-3.74-1.29a14.1,14.1,0,0,1-1.56-.73c.55-1.11,1.06-2.25,1.56-3.38.42-.9.85-1.79,1.26-2.69,1.71.71,3.41,1.4,5.12,2.08-.87,2-1.74,4.07-2.64,6m-8.45-10.67c1.55.68,3.11,1.38,4.66,2-.88,2-1.8,4-2.7,5.92-2.29-1.56-3.64-4-2-8m4.67-5a8.36,8.36,0,0,1,2.75.55c-.73,1.78-1.56,3.55-2.26,5.31l-.37-.34c-1.41-.61-2.8-1.21-4.13-1.84,1.33-2.68,2.44-3.76,4.13-3.79m9,3.11q-1.05,2.73-2.15,5.39c-1.71-.67-3.4-1.37-5.08-2.06.81-1.79,1.56-3.58,2.33-5.35l4.9,2m1.19.48a34.25,34.25,0,0,1,4.66,2.21c-.56,1.71-1.13,3.4-1.74,5.09-1.67-.62-3.35-1.25-5-1.91q1.1-2.7,2.13-5.39m-.56-1.94c-4.83-1.79-7.66-3-9.66-3.11a3.66,3.66,0,0,0-2.44.53,12.78,12.78,0,0,0-3.39,4.82c-3.4,6.68,1.18,9.94,5.83,11.87,1.55.63,3.1,1.13,4.36,1.55,6.93,2.29,11.17,4.66,13.6-2.05.21-.62.43-1.34.63-2.11,1.35-5.44,1.34-7.77-8.93-11.5"/><path class="cls-4" d="M251.67,991c.87-.47,1.35-1.23,1.11-1.7s-.6-.42-1.21.08a1.36,1.36,0,0,1-1.93.12,1.35,1.35,0,0,1-.41-.66c-.76-1.7,1.55-3.11,3.23-2.92s4.66,3.88,5.55,6.3a2.57,2.57,0,0,0,1.24,3.41l.18.07a2.68,2.68,0,0,0,3.39-1.69,2.88,2.88,0,0,0,.13-.65c3.18-1.76,6.8-1.93,8.37-.84s2.47,3.77.75,4.54a1.36,1.36,0,0,1-1.88-.39,1.4,1.4,0,0,1-.22-.75c-.13-.78-.17-1.15-.86-.88a1.39,1.39,0,0,0-.23,2,2.86,2.86,0,0,0,3,1.56c3-.84,3.11-4.88.28-7-2.32-1.74-6.59-.76-9.45.64a2.56,2.56,0,0,0-3.42-1.18,2,2,0,0,0-.35.2c-1.32-2.67-3.55-6.31-6.51-6.48-3.61-.2-5.52,3.19-4,5.38a2.59,2.59,0,0,0,3.26.93"/><path class="cls-4" d="M283.67,1020.48c1.77,7-5.86,9.32-7.64,3.34-1.12,2.22-6.9,3.1-6.65-1.77-4.1.51-6.22-.72-6.11-3.31-5.76,2.16-5.81-.63-3.11-3.47-5.31-1.55-3.77-6.21.78-6.71-1.92-2.53.78-7.15,5.56-4.58-.32-2.27,2.86-3.72,5.46-1.26.73-2.83,3.26-1.77,5.08,0,1.55-2.08,4.66.42,4,2.83,2.78-.35,6.8,3,1.92,6.75,5.22.49,6.48,7.77.64,8.19m1.55-8.82c3.11-2.1.25-7.59-2.53-7.23.64-2.42-3.79-5.42-5.34-3.34a3.81,3.81,0,0,0-5.38-.19l-.11.1c-2.25-1.82-6.66-.72-6.63,1.35-4.32-1.41-7.2,3.26-6.08,5.31-4.86,1.34-4.08,6.62-.82,8.42-2.25,3.59,0,5.54,3.39,5,1.08,2.27,2.39,3.37,6.51,2.84.85,4.35,4.56,3.76,7.11,2.35,2.75,4.39,10.88,2.65,10.16-4.93,4.9-1.55,4.35-7.77-.28-9.69"/><path class="cls-4" d="M252.64,1030.14a22.57,22.57,0,0,1-6.6-3.65,17.49,17.49,0,0,1,6.74-6.43,25.72,25.72,0,0,1-.14,10.08m-9.83-3.74a32.83,32.83,0,0,0,12.18,6.21,68.16,68.16,0,0,0-.31-15.83c-2.94,1.15-10.6,7.77-11.87,9.62"/><path class="cls-4" d="M291.72,988.33c-3.46,5.33-11.54,2.66-11-4.66-4.22,4-10.28,1.93-10-4.21a4.85,4.85,0,0,1-8.54-4.2c-2.61,4.66-12,5.07-9.67-3-4.66,5.38-9.32,2.63-7.92-2.4-2.67,3.1-6.37,4-7.13.84a7.23,7.23,0,0,1,0-2.93,4,4,0,0,1,.17-.93,12.46,12.46,0,0,1,10.07-.7c13.42,4,27.7,10.8,40.61,16.16,2.66,1.09,10.35,5.53,11,11.08-2.3,1.35-6.48,1.35-7.63-5.11m-3.51,47a17.9,17.9,0,0,0-18.65,1c-4,2.94-7.31,9.32-9.66,16.33a92.6,92.6,0,0,0-2.61,9.53c-1.26,5.84-14.09,2.79-19.75,1.11l-.68-.18c-6.9-2.13-13.05-5.13-14.34-8.86-2.22-6.46,5.7-13.13,8.5-19.93a13,13,0,0,0,.82-2.94c1.55-10-5.67-20.8-16.51-22.14,3.85-11.62,12.7-33.36,19.68-40.39a6.93,6.93,0,0,0,2.58,4.55,4.06,4.06,0,0,0,5,.32c.31,2.51,5.22,4.87,8.05,2.77.2,2.56,6.51,5.3,10.33,2.66a7.25,7.25,0,0,0,8.67,3.35c.53,3.3,5.61,6,9.85,4.66.58,3.69,7.23,7.88,11.16,4.37a7.25,7.25,0,0,0,8.74,3.9,120.1,120.1,0,0,1-11.09,39.85m-4.07,8.16a9.33,9.33,0,0,0-14.53,6.85,26.51,26.51,0,0,0-5.45-2.11c2.49-9.59,13.39-16.75,23.68-11.48-1.31,2.19-2.49,4.55-3.7,6.74m-7.77,8.73c-1.55.4-3.4-.33-5.45-1.3a8.33,8.33,0,0,1,12.63-6.22c-2.11,3.73-4.32,6.81-7.18,7.54m-54.38-17.59c3.61-9.06-1-17.34-8.37-19.45.34-1.56.76-3.11,1.24-4.67,12.21,1.11,19.75,16,11.89,27.8Zm-1.55-1.17c-3-1.64-6.85-3.32-8.5-5.54a92.61,92.61,0,0,1,1.34-10.88c6.21,1.72,10.2,8.73,7.16,16.39m79.07-45.88c-4.15-5.53-10.62-7.89-16.78-10.63-6.79-3-13.69-5.78-20.57-8.54a79.27,79.27,0,0,0-13.47-4.52,26.89,26.89,0,0,0-6.92-.8,8.47,8.47,0,0,0-4.27,1.4,17,17,0,0,0-2.27,1.7c-5.95,5.28-10.07,12.22-13.38,19.34a187.8,187.8,0,0,0-7.63,19,101.56,101.56,0,0,0-3.77,13.36c-.72,3.64-2.29,8.83,0,12.17,1.93,2.75,5.58,3.68,8.23,5.53.47.31,6.12,4,5.86,4.43-3.11,4.66-6.54,9.76-4.66,15.19,1.2,3.48,5,6.45,11.71,9,1.4.54,2.86,1,4.37,1.55l1.48.44c5.19,1.55,11.07,3,16.39,1.86,6.45-1.33,6.8-9.41,8.51-14.45.33-1,.67-1.91,1-2.81h.14a25.61,25.61,0,0,1,4.9,1.9l3.41,1.66v-.12a8.57,8.57,0,0,0,5.12.54c4.66-1.18,6.89-5.78,9.08-9.57a95.05,95.05,0,0,0,7.12-14.5,162.84,162.84,0,0,0,6.56-21.05c1.43-6.59,4.29-16-.24-22"/><path class="cls-4" d="M229.15,1003.54c-.43-5.08,4-7.58,8.38-7.24,4.83.36,9.49,4.26,7,12a31.52,31.52,0,0,1-7-1.14,28.58,28.58,0,0,1-8.38-3.65m15.54,7.09c5.94-12.26-.57-17.31-7.19-16.74-5.22.45-10.51,4.37-9.9,11a49.29,49.29,0,0,0,9.9,4.19,34.54,34.54,0,0,0,7.19,1.56"/><path class="cls-4" d="M278.14,1018.33c-5.1-.18-11.95-3.63-15.75-6,1.3-8.12,20.57-8.78,15.75,6m-17.24-5.48c3.82,3.1,12.7,8,18.41,7.77,8.23-18.85-15.63-20.2-18.41-7.77"/><path class="cls-4" d="M228.07,1007.27c-3.62-.7-4.67-3.51-1.79-5-2.91-2.22-1.65-6.32,1.89-5-.76-4.53,1-5.5,3.9-4a4.88,4.88,0,0,1,5.52-3.37,4.81,4.81,0,0,1,2.95,3.11c2.29-2.82,4.82-1.92,6.37,2.64,2.78-.38,3.89.94,3.62,4.44,2.58,2,1.8,3.4-.17,4.52,4,5.21,1,8.21-3,7.15-.51,6.21-4.88,6.74-6.9,1.38a5.27,5.27,0,0,1-3.11,2.08c-2.5.56-4.83-1.43-4.39-5.33-3,3.58-6.92.92-5.07-2.51m9.46,9.32a7.82,7.82,0,0,0,2.46-1.2c.88,3.56,7.92,4,8.43-2.19,3.92,1.06,7.06-3.7,3.72-8.34,2-1.12,2.45-3.57-.14-5.61,1.26-2.75-1.42-5.48-4.21-5.14-1.56-4.46-5-5.18-6.36-2.94a5.19,5.19,0,0,0-3.71-2.81,6.86,6.86,0,0,0-6.22,3.11c-3-1.56-5.51,1.07-4.86,4.11a4.36,4.36,0,0,0-3.11,5.31,4.47,4.47,0,0,0,.92,1.75c-1.88,1.55-1.55,5.09,2.07,5.78-.83,2.73,2.34,4.66,5.59,4-.56,2.31,2,5,5.59,4"/><path class="cls-4" d="M658,1344.61a4.15,4.15,0,0,1-1.86.71,21.88,21.88,0,0,1-7.86-.42,76.71,76.71,0,0,1-13.13-3.79q-2.5-1-4.93-2.11a112.48,112.48,0,0,1-12.83-6.59c-11.31-7.22-18.72-14.5-22.36-19.86a7.63,7.63,0,0,0,3.88.25c-.62-1.66-1.83-3.45-1.91-5.3a35.89,35.89,0,0,0,6.22-.23c-1-1.38-2.33-2.44-2.3-3.63a37.61,37.61,0,0,0,6.56,2.08c-.55-1.56-2-3.54-1.88-4.8,1.24.32,2.47.54,3.71.91a8.54,8.54,0,0,1-1.56-5.73c7.4.45,13.15,7,16.8,12.83s6.22,12.43,10.27,17.93a41.41,41.41,0,0,0,17.85,13.86,15.92,15.92,0,0,0,3.61,1.25c.87.1,2.13-.36,2.42.88a1.84,1.84,0,0,1-.75,1.76m-63.7-34.29h0a4.2,4.2,0,0,0-.12,2.84c-.92-.2-4.18-4.33-3.47-8.84h0c.11-2.08,1.14-3.59.72-4.49-2.72-1.55-7.12-4.66-7.47-6.82-.92-5.38,3.68-6,4.75-4.83-4.12,2.86,1.18,6.79,4.58,8.64a9.8,9.8,0,0,1,5.24-2.94l.4-.11h0c5.25-1.35,9.93.87,10.07,1.86a8.73,8.73,0,0,0-2.53.44,13.55,13.55,0,0,0,.79,4.12,7.93,7.93,0,0,1-2.92-.59c-.09,1.25,1.1,3.51,1.06,4.83-2.18-.51-4.59-1.94-7.1-2.78.38,1.94,1.81,3.2,2.23,4.66a26.47,26.47,0,0,1-5.11-.14c0,1.3.79,3.31,1,4.81a4.91,4.91,0,0,1-2.22-.6m66,32.13a2.27,2.27,0,0,0-.65-1.18,5.49,5.49,0,0,0-3.23-1,20.09,20.09,0,0,1-6.43-2.77,44.86,44.86,0,0,1-6-3.85,40,40,0,0,1-7.66-7.88,79.92,79.92,0,0,1-6-10.19c-1.27-2.45-2.76-4.85-4.07-7.29-3-5.6-9.41-11.85-15.54-12.86l1.2-.53a15.81,15.81,0,0,0-5.42-2.76,17.62,17.62,0,0,0-5.7-.27,16.36,16.36,0,0,0-7.93,3.11,17.9,17.9,0,0,1-3.43-2.7,2.4,2.4,0,0,1,0-3.39,2.3,2.3,0,0,1,.64-.47c.17-.09.37-.18.39-.37a.57.57,0,0,0-.11-.33,4.11,4.11,0,0,0-4.66-1.44,5.17,5.17,0,0,0-3.27,3.71,7,7,0,0,0,.81,5c1.56,2.63,4.21,4,6.65,5.58a7.08,7.08,0,0,1-.37,1.56,14,14,0,0,0-.44,2.73,12.6,12.6,0,0,0,1.19,6,7.12,7.12,0,0,0,4.42,4.29v-.73a34.53,34.53,0,0,0,6.75,7.77q2.79,2.63,5.82,5a106.39,106.39,0,0,0,17.76,11.12,110.09,110.09,0,0,0,12,5.16c3,1,6,1.83,9,2.58a23.7,23.7,0,0,0,8.65,1.08,7.27,7.27,0,0,0,5.25-2.68,2.8,2.8,0,0,0,.33-2"/><path class="cls-4" d="M400.45,563.89a1.71,1.71,0,0,1-2.42.05l0-.05a1.8,1.8,0,0,1-.17-2.52,1.72,1.72,0,0,1,2.43,0l0,0a1.83,1.83,0,0,1,.17,2.52m-3.7-3.48a3.27,3.27,0,0,0,.31,4.54,3.1,3.1,0,0,0,4.39.06l.07-.06a3.28,3.28,0,0,0-.33-4.54,3.1,3.1,0,0,0-4.39,0l-.05,0"/><path class="cls-4" d="M398.94,625.57a2.39,2.39,0,0,1-3.25.75,2.34,2.34,0,0,1-.68-3.23l0,0a2.38,2.38,0,0,1,3.26-.75,2.36,2.36,0,0,1,.65,3.25m-5.1-3.32a3.73,3.73,0,0,0,1,5.17l0,0a3.83,3.83,0,0,0,5.22-1.19,3.73,3.73,0,0,0-1-5.17h0a3.82,3.82,0,0,0-5.22,1.18"/><path class="cls-4" d="M434.21,553l-4.3-2.73,4.38-2.7V553m-.38,8.3-4.53-2.94,4.83-3c-.08,1.93-.17,3.93-.3,5.92M433,571l-4.73-3.42,5.43-3.87c-.18,2.5-.42,5-.7,7.29m-1.55,8.54L427.92,577l4.66-3.11a52.66,52.66,0,0,1-1.12,5.7m-22.7-34.8c0,2.3-.11,4.47-.22,6.38l-5.25-3.1Zm-18.24,36.57c.17-2.73.34-5.47.5-8.06a5.56,5.56,0,0,1,2.11,5,3.43,3.43,0,0,1-2.61,3.1m4-2.61a7.78,7.78,0,0,0-3.35-7.33l.18-3.18a11.15,11.15,0,0,1,5,10.7,7,7,0,0,1-6,6.34l.12-2.16a4.8,4.8,0,0,0,4.07-4.37m28.6,8.21c-2,.18-4.52,0-8.7-.08-5.74,0-6.86,1.41-7.07,5.56-.1,2.1-.1,4.66-.09,7.34a10.6,10.6,0,0,0-8.08,10.28c-.23,5.38,3.11,10,7.51,11-.94,8.82-4.57,11.88-9,12.07-5.58.2-8.48-4.2-8.73-9.62a200.26,200.26,0,0,1,.32-22.32c-2.64,0-8.59-.22-12.83-.67a12,12,0,0,1-9.83-6.22l3.76-3.51-5-2.83,5.95-4.3-7.66-4.66,7.11-5.14-6.33-4.34,7.62-5.51-4.84-4a6.06,6.06,0,0,1,4.66-2.39c4.66-.13,7.25,2.27,6.63,9.32-.26,3-1.65,11.59-1.82,18.64a7.93,7.93,0,0,0,5.71,8.25,19.77,19.77,0,0,0,7.38.72c.17-2.47.34-5,.51-7.58a8.22,8.22,0,0,0,7.77-7.38c.82-5.22-2.66-11.07-6.58-12.62.38-6.46.64-11.33.61-12.43,0-3.87-1-5.13-4.66-5.7-2.39-.39-5.21-.51-6.31-.73-3-.56-4.08-1.82-4.66-7.13a53.83,53.83,0,0,1-.15-6.22,8,8,0,0,0,7-8.42,7.77,7.77,0,0,0-5.34-7.07c.85-1.94,2.14-3.29,3.85-3.28,3.26,0,5.07,2.75,5.11,8.18,0,2.59-1,10.76-1,16.53,0,3.57.64,6.07,3.9,6.06s3.78-2,3.87-5.07c.25-7.39.7-15.13.67-17.73,0-5.4,2.42-9.46,6.63-9.43a6.37,6.37,0,0,1,5.4,3.22l-5,3.2,5.24,2.83-5,3,5.61,3-5.61,3.43,6.21,3.53-6.21,4.34,5.67,3.26-6.48,3.94,7.61,4.43c-.18,4.37-.4,15-.69,25.59a16.81,16.81,0,0,0,5.39,0c5-.88,7-4.07,7.08-9,.2-9.09-3.11-18.65-2.76-28.47.23-5.4,2.62-10,8-10.11,3.9-.09,7.19,2.28,8.33,7.25l-7.17,4,7.06,4.48-6.34,3.9,6.06,3.85-6.64,4.1,5.94,4.12-7,5,6.45,5-6.77,4.66,5.48,4.43a8.31,8.31,0,0,1-7.77,5.4M404.44,610.3a5.88,5.88,0,0,0,2.61,5.39,29.68,29.68,0,0,1-.19,3.4,9.2,9.2,0,0,1,.39-17.23v3.4a5.91,5.91,0,0,0-2.81,5m2.67,4a5,5,0,0,1-.33-7.07c.15-.16.31-.31.47-.45,0,2.51,0,5-.14,7.52m-42.52-25.28,3.82,2.16-2.5,1.82a25.43,25.43,0,0,1-1.32-4m-1.06-8.28,5.16,3.11-4.51,3.24a47.21,47.21,0,0,1-.65-6.4m.36-9.6L368.1,574l-4.66,3.34c0-2.27.2-4.41.37-6.22m2.3-9.58,3.25,2.64-5.21,3.76a18.39,18.39,0,0,1,2-6.4m10.35-31.08a3.41,3.41,0,0,0,3.11-3.51,3.21,3.21,0,0,0-2.66-3,16.2,16.2,0,0,1,.6-3.31,6.22,6.22,0,0,1,4.12,5.58,6.36,6.36,0,0,1-5.25,6.66,22,22,0,0,1,.14-2.47m.31-5.06a1.77,1.77,0,0,1,1.26,1.55,1.88,1.88,0,0,1-1.48,1.9c.1-1.35.19-2.55.22-3.47m31.37-2.3-4.29-2.33,3.11-2a13.91,13.91,0,0,1,1.2,4.32m.4,5.88-4.41-2.33,4.11-2.52c.11,1.35.22,3,.3,4.85m.19,6.71L404.15,533l4.45-2.74c0,1.7.11,3.51.14,5.38m0,7.91-4.66-2.69,4.66-3.26v6m25.5,1.83-5.06-3.26,4.84-2.69c.14,1.3.24,3.37.25,5.92m1.85-4.13c-.28-5.67-2.64-11.92-11.51-12.08-5.63-.1-9.32,4.23-9.06,11.14.28,10.18,2.75,17,2.17,26.42-.24,4.19-3.1,9.68-7.84,8.54,0-18.38,1.32-44.28-.5-53.9-1-5.53-3.54-8.88-7.55-8.9-4.38,0-8.31,3.39-8.7,9.32-.19,2.69-.9,9.05-1.15,16.75-.11,3.11-.54,6.75-2.63,6.22-1.43-.38-1.18-2.46-1.16-6.22,0-6,.31-14,0-16.73-.48-4.66-2.91-7.68-6.29-7.77-3.89,0-6.22,4-6.82,8.55a118.66,118.66,0,0,0-.1,19c.55,5.23,1,8.6,8,8.94,5.34.28,6.4,1.37,6.46,5.39A349.19,349.19,0,0,1,388,591.68c-7.59.24-9.06-1.55-9-6.54.1-7.42,1.41-17.26,1.18-20.33-.61-7.94-4.45-9.67-9.33-9.54s-7.76,6.21-8.48,11.87c-.68,6-2,17.72,2.32,27.05a11.64,11.64,0,0,0,9.8,7.67c4.43.51,9.87.78,12.62.82-.45,7.34-1.19,14.28.28,22.78.93,5.5,4.33,10.26,10.14,10,4.85-.19,9.21-3.4,10.69-13.77,1.37-9.54,1.1-16.65,1.55-26.25.22-4.32.91-6.48,5.58-6.55a87.53,87.53,0,0,0,9.48-.6c3.57-.33,6.8-2.89,8.31-7.77,2.74-9,3.39-29.89,2.92-39.45"/><path class="cls-4" d="M400.43,595.07a1.66,1.66,0,0,1-2.05,1.15h-.05a1.81,1.81,0,0,1-1.16-2.18,1.65,1.65,0,0,1,2-1.16l.08,0a1.78,1.78,0,0,1,1.16,2.17m-.84-3.71A2.87,2.87,0,0,0,396,593.2c0,.1-.05.19-.07.29a3.38,3.38,0,0,0,2.05,4.1,2.88,2.88,0,0,0,3.62-1.88,2.68,2.68,0,0,0,.07-.27,3.39,3.39,0,0,0-2.05-4.08"/></g></g></svg>