<svg id="Layer_1" data-name="Layer 1" xmlns="http://www.w3.org/2000/svg" viewBox="0 0 500 500"><defs><style>.cls-1,.cls-2{fill:none;stroke-width:0.25px;}.cls-1{stroke:#00ffc5;}.cls-2{stroke:#e5c8fe;}</style></defs><title>Artboard 1</title><rect class="cls-1" x="208.19" y="158.49" width="75.21" height="75.21"/><polyline class="cls-1" points="148.22 0.09 148.2 23.29 208.21 83.29 208.2 158.5 132.99 158.51 95.2 120.72 95.01 120.91 41.84 67.73 41.86 0.1"/><rect class="cls-2" x="251.01" y="158.49" width="75.21" height="75.21"/><polyline class="cls-2" points="191.04 0.09 191.02 23.29 251.02 83.29 251.01 158.5 175.8 158.51 138.01 120.72 137.82 120.91 84.65 67.73 84.67 0.1"/><polygon class="cls-1" points="499.1 374.19 358.61 233.69 283.4 233.7 283.39 308.91 433.79 459.31 499.1 459.3 499.1 374.19"/><polygon class="cls-2" points="499.1 401.08 499.1 359.39 499.1 331.37 401.43 233.69 326.22 233.7 326.2 308.91 476.61 459.31 499.1 459.3 499.1 401.08"/></svg>