<svg id="Layer_1" data-name="Layer 1" xmlns="http://www.w3.org/2000/svg" xmlns:xlink="http://www.w3.org/1999/xlink" viewBox="0 0 170 100"><defs><style>.cls-1{fill:none;}.cls-2{fill:#e5c8fe;}.cls-3{fill:#fe9601;}.cls-4{fill:#00ffc5;}.cls-5{clip-path:url(#clip-path);}.cls-6{fill:#f5eadc;}</style><clipPath id="clip-path"><rect class="cls-1" x="0.85" y="0.5" width="168.3" height="99"/></clipPath></defs><title>Artboard 1</title><polygon class="cls-2" points="0.85 0.5 0.85 13.51 5.19 17.84 9.52 13.51 9.52 9.17 15.97 9.17 15.97 17.84 24.65 17.84 24.65 9.17 24.65 0.5 0.85 0.5"/><polygon class="cls-3" points="0.85 39.52 0.85 78.53 24.65 78.53 24.65 54.74 20.31 54.74 24.65 50.4 24.65 37.4 11.64 50.4 11.64 63.41 15.97 59.07 15.97 69.86 9.52 69.86 9.52 39.52 5.19 35.18 0.85 39.52"/><rect class="cls-2" x="2.12" y="27.78" width="6.13" height="6.13" transform="translate(-20.29 12.7) rotate(-45)"/><rect class="cls-4" x="2.12" y="19.11" width="6.13" height="6.13" transform="translate(-14.16 10.16) rotate(-45)"/><polygon class="cls-2" points="40.64 78.53 40.64 69.86 36.3 65.53 31.97 69.86 31.97 78.53 40.64 78.53"/><rect class="cls-3" x="33.24" y="58.13" width="6.13" height="6.13" transform="translate(-32.64 43.59) rotate(-45)"/><polygon class="cls-2" points="51.52 74.2 47.19 78.53 55.86 78.53 51.52 74.2"/><rect class="cls-3" x="48.46" y="66.8" width="6.13" height="6.13" transform="translate(-34.31 56.9) rotate(-45)"/><path class="cls-4" d="M40.64,9.17h6.55v13l-6.55,6.55ZM32,.5v52l4.33,4.34,4.34-4.34V41.73L45,37.4l2.22,2.12V61.19l4.33,4.34,4.34-4.34v-26l-4.34-4.33,4.34-4.34V.5Z"/><polygon class="cls-3" points="63.47 0.5 63.47 17.84 67.8 22.18 72.14 17.84 72.14 0.5 63.47 0.5"/><polygon class="cls-4" points="63.47 78.53 72.14 78.53 72.14 43.85 67.8 39.52 63.47 43.85 63.47 78.53"/><rect class="cls-4" x="64.74" y="32.12" width="6.13" height="6.13" transform="translate(-5.02 58.25) rotate(-45)"/><rect class="cls-2" x="64.74" y="23.45" width="6.13" height="6.13" transform="translate(1.11 55.71) rotate(-45)"/><polygon class="cls-2" points="97.19 0.5 97.19 11.39 86.3 0.5 79.84 0.5 79.84 61.19 84.18 65.53 88.52 61.19 88.52 15.72 97.19 24.39 97.19 43.85 101.52 48.19 105.86 43.85 105.86 0.5 97.19 0.5"/><polygon class="cls-3" points="105.86 78.53 105.86 69.86 101.52 65.53 97.19 69.86 97.19 78.53 105.86 78.53"/><rect class="cls-3" x="98.46" y="49.46" width="6.13" height="6.13" transform="translate(-7.4 87.17) rotate(-45)"/><rect class="cls-2" x="98.46" y="58.13" width="6.13" height="6.13" transform="translate(-13.54 89.71) rotate(-45)"/><rect class="cls-4" x="81.11" y="66.8" width="6.13" height="6.13" transform="translate(-24.75 79.99) rotate(-45)"/><polygon class="cls-3" points="84.18 74.2 79.84 78.53 88.52 78.53 84.18 74.2"/><polygon class="cls-4" points="113.56 0.5 113.56 13.51 117.9 17.84 122.23 13.51 122.23 9.17 128.78 9.17 128.78 17.84 137.45 17.84 137.45 9.17 137.45 0.5 113.56 0.5"/><polygon class="cls-2" points="137.45 78.53 137.45 54.74 133.12 54.74 137.45 50.4 137.45 37.4 124.45 50.4 124.45 63.41 128.78 59.07 128.78 69.86 122.23 69.86 122.23 39.52 117.9 35.18 113.56 39.52 113.56 78.53 137.45 78.53"/><rect class="cls-2" x="114.83" y="27.78" width="6.13" height="6.13" transform="translate(12.72 92.4) rotate(-45)"/><rect class="cls-3" x="114.83" y="19.11" width="6.13" height="6.13" transform="translate(18.85 89.86) rotate(-45)"/><polygon class="cls-4" points="160.48 48.19 160.48 69.86 153.93 69.86 153.93 48.19 149.59 43.85 145.26 48.19 145.26 78.53 169.15 78.53 169.15 48.19 164.81 43.85 160.48 48.19"/><polygon class="cls-3" points="145.26 0.5 145.26 30.85 149.59 35.18 153.93 30.85 153.93 9.17 160.48 9.17 160.48 30.85 164.81 35.18 169.15 30.85 169.15 0.5 145.26 0.5"/><rect class="cls-2" x="146.53" y="36.45" width="6.13" height="6.13" transform="translate(15.87 117.35) rotate(-45)"/><rect class="cls-4" x="161.75" y="36.45" width="6.13" height="6.13" transform="translate(20.33 128.11) rotate(-45)"/><g class="cls-5"><path class="cls-6" d="M168.71,94.58a1.81,1.81,0,0,1-1.31.57,1.17,1.17,0,0,1-.85-.29,1.08,1.08,0,0,1-.32-.84V89.47h2.87V88.39h-2.87v-2.2l-1.24.34v1.86h-1.55v1.08H165v4.76a2,2,0,0,0,.61,1.57,2.32,2.32,0,0,0,1.55.52,2.92,2.92,0,0,0,2-.7Zm-27.47-5.25a2.09,2.09,0,0,1,1.57.61,2.85,2.85,0,0,1,.71,1.7h-4.7a2.78,2.78,0,0,1,.77-1.71,2.29,2.29,0,0,1,1.65-.6m3.47,2.54a4.08,4.08,0,0,0-.4-1.84,3.14,3.14,0,0,0-1.19-1.31,3.58,3.58,0,0,0-1.88-.48,3.46,3.46,0,0,0-2.71,1.07,4.34,4.34,0,0,0-.95,3,4.15,4.15,0,0,0,1,3,3.56,3.56,0,0,0,2.75,1.08,4,4,0,0,0,2-.44,3.2,3.2,0,0,0,1.24-1.26l-1-.54a1.52,1.52,0,0,1-.77.85,3,3,0,0,1-1.42.3,2.42,2.42,0,0,1-1.74-.65,2.87,2.87,0,0,1-.79-1.84h5.85a6.36,6.36,0,0,0,.06-.87m-30-3.63a3.52,3.52,0,0,0-1.59.39A2.3,2.3,0,0,0,112,89.76a2.56,2.56,0,0,0-1.1-1.13,3.23,3.23,0,0,0-1.57-.39,3,3,0,0,0-1.42.34,2.64,2.64,0,0,0-1.07,1l-.07-1.22h-1.09v7.77H107V92a3.08,3.08,0,0,1,.34-1.5,2.22,2.22,0,0,1,.87-.9,2.27,2.27,0,0,1,1.09-.28,1.82,1.82,0,0,1,1.33.49,2,2,0,0,1,.5,1.49v4.85h1.24V91.9a2.91,2.91,0,0,1,.32-1.39,2.23,2.23,0,0,1,.84-.88,2.21,2.21,0,0,1,1.14-.3,1.8,1.8,0,0,1,1.32.49,2,2,0,0,1,.51,1.49v4.85h1.24v-5a3.06,3.06,0,0,0-.42-1.65,2.57,2.57,0,0,0-1.09-1,3.41,3.41,0,0,0-1.45-.32m-29.25,0A2.45,2.45,0,0,0,83,89.67l-.17-1.28h-1v7.77h1.24V92a3.06,3.06,0,0,1,.3-1.41,2.08,2.08,0,0,1,.78-.87,1.85,1.85,0,0,1,1-.29,2,2,0,0,1,1,.21l.24-1.22a1.9,1.9,0,0,0-.85-.15m-25.35.15v4.23a2.35,2.35,0,0,1-2.48,2.61,1.83,1.83,0,0,1-1.37-.48,2.23,2.23,0,0,1-.46-1.6V88.39H54.58v5.08a2.69,2.69,0,0,0,.8,2.15,3,3,0,0,0,2,.7A2.94,2.94,0,0,0,60.21,95l.08,1.18h1.08V88.39Zm-29.2.92a2.29,2.29,0,0,1,1.85.79,3.87,3.87,0,0,1,0,4.35,2.55,2.55,0,0,1-3.69,0,3.87,3.87,0,0,1,0-4.35,2.27,2.27,0,0,1,1.84-.79m0-1.07a3.59,3.59,0,0,0-2.75,1.07,4.9,4.9,0,0,0,0,5.93,3.56,3.56,0,0,0,2.75,1.08,3.59,3.59,0,0,0,2.76-1.08,4.9,4.9,0,0,0,0-5.93,3.62,3.62,0,0,0-2.76-1.07M4.56,98.46a4.37,4.37,0,0,1-1.91-.33A1,1,0,0,1,2,97.2a.82.82,0,0,1,.39-.71,2,2,0,0,1,1.1-.25H5.57a2.25,2.25,0,0,1,1.18.23.75.75,0,0,1,.35.68,1.08,1.08,0,0,1-.68.93,3.88,3.88,0,0,1-1.86.38m-.19-9.21a2,2,0,0,1,1.35.45,1.53,1.53,0,0,1,0,2.33,2,2,0,0,1-1.35.45A2.06,2.06,0,0,1,3,92,1.53,1.53,0,0,1,3,89.7a2.06,2.06,0,0,1,1.35-.45m1.54,5.92H3.33A1.18,1.18,0,0,1,2.59,95a.73.73,0,0,1-.28-.62,1,1,0,0,1,.2-.64,1.28,1.28,0,0,1,.67-.34,4.68,4.68,0,0,0,1.19.14A3.84,3.84,0,0,0,6,93.15a2.67,2.67,0,0,0,1.13-.93,2.53,2.53,0,0,0,.15-2.46,2.54,2.54,0,0,0-.72-.85c.21-.57.83-.86,1.84-.86L8.14,87A2,2,0,0,0,6,88.55a3.92,3.92,0,0,0-1.59-.31,3.91,3.91,0,0,0-1.64.33,2.69,2.69,0,0,0-1.13.93,2.39,2.39,0,0,0-.41,1.36,2.67,2.67,0,0,0,.29,1.24,2.24,2.24,0,0,0,.84.89,1.94,1.94,0,0,0-.85.57,1.43,1.43,0,0,0-.31,1,1.32,1.32,0,0,0,.29.84,2.11,2.11,0,0,0,.77.59,2,2,0,0,0-1,.58,1.32,1.32,0,0,0-.37.93,1.69,1.69,0,0,0,.9,1.48,5,5,0,0,0,2.67.57,5.92,5.92,0,0,0,1.93-.3,3.19,3.19,0,0,0,1.39-.87A1.92,1.92,0,0,0,8.25,97a1.66,1.66,0,0,0-.62-1.35,2.69,2.69,0,0,0-1.72-.49"/></g></svg>